# xmcd
#
# Track frame offsets:
#	150
#	40511
#	64609
#	123361
#	147700
#	189323
#	202551
#	232478
#	294500
#
# Disc length: 4280 seconds
#
# Revision: 12
# Processed by: cddbd v1.5.2PL0 Copyright (c) Steve Scherf et al.
# Submitted via: EasyCDDAExtractor 10.2.0.1
#
DISCID=8110b609
DTITLE=Eric Clapton - Crossroads 2: Live in the Seventies [CD3)
DYEAR=1996
DGENRE=Blues
TTITLE0=Tell The Truth
TTITLE1=Knockin' On Heaven's Door
TTITLE2=Stormy Monday
TTITLE3=Lay Down Sally
TTITLE4=The Core
TTITLE5=We're All The Way
TTITLE6=Cocaine
TTITLE7=Goin' Down Slow-Ramblin On My Mind
TTITLE8=Mean Old Frisco
EXTD=YEAR: 1996 ID3G: 17
EXTT0=Hammersmith Odeon, April 27, 1977
EXTT1=Hammersmith Odeon, April 27, 1977
EXTT2=Hammersmith Odeon, April 27, 1977
EXTT3=Santa Monica Civic Auditorium Febr. 28, 1978
EXTT4=Santa Monica Civic Auditorium Febr. 28, 1978
EXTT5=Santa Monica Civic Auditorium Febr. 28, 1978
EXTT6=Santa Monica Civic Auditorium Febr. 28, 1978
EXTT7=Santa Monica Civic Auditorium Febr. 28, 1978
EXTT8=Savannah Civic Center March 21, 1978
PLAYORDER=
